<svg xmlns="http://www.w3.org/2000/svg" xmlns:xlink="http://www.w3.org/1999/xlink" width="500" zoomAndPan="magnify" viewBox="0 0 375 374.999991" height="500" preserveAspectRatio="xMidYMid meet" version="1.0"><defs><g/><clipPath id="23cdaaca2c"><path d="M 152 132 L 203.847656 132 L 203.847656 256.46875 L 152 256.46875 Z M 152 132 " clip-rule="nonzero"/></clipPath><clipPath id="db0e880e4f"><path d="M 117.144531 154 L 169 154 L 169 256.46875 L 117.144531 256.46875 Z M 117.144531 154 " clip-rule="nonzero"/></clipPath><clipPath id="6fe476a711"><path d="M 117.144531 118.671875 L 197 118.671875 L 197 171 L 117.144531 171 Z M 117.144531 118.671875 " clip-rule="nonzero"/></clipPath></defs><g clip-path="url(#23cdaaca2c)"><path fill="#018f4b" d="M 160.492188 256.195312 C 159.378906 256.195312 158.246094 255.964844 157.164062 255.480469 C 153.070312 253.636719 151.242188 248.824219 153.085938 244.730469 L 185.441406 172.753906 C 186.871094 169.398438 187.597656 165.828125 187.597656 162.144531 C 187.597656 156.246094 185.738281 150.640625 182.214844 145.933594 C 179.527344 142.339844 180.261719 137.246094 183.855469 134.554688 C 187.449219 131.863281 192.542969 132.597656 195.234375 136.195312 C 200.875 143.734375 203.855469 152.707031 203.855469 162.144531 C 203.855469 167.984375 202.710938 173.652344 200.453125 179 C 200.414062 179.097656 200.375 179.191406 200.328125 179.289062 L 167.914062 251.398438 C 166.558594 254.410156 163.597656 256.195312 160.492188 256.195312 " fill-opacity="1" fill-rule="nonzero"/></g><g clip-path="url(#db0e880e4f)"><path fill="#7ed957" d="M 160.503906 256.195312 C 157.402344 256.195312 154.441406 254.410156 153.085938 251.398438 L 120.667969 179.289062 C 120.625 179.191406 120.582031 179.09375 120.542969 178.996094 C 118.285156 173.652344 117.140625 167.984375 117.140625 162.144531 C 117.140625 157.65625 120.78125 154.015625 125.269531 154.015625 C 129.761719 154.015625 133.398438 157.65625 133.398438 162.144531 C 133.398438 165.828125 134.125 169.398438 135.554688 172.753906 L 167.914062 244.730469 C 169.753906 248.824219 167.925781 253.636719 163.832031 255.480469 C 162.75 255.964844 161.617188 256.195312 160.503906 256.195312 " fill-opacity="1" fill-rule="nonzero"/></g><g clip-path="url(#6fe476a711)"><path fill="#00bf63" d="M 125.269531 170.273438 C 120.78125 170.273438 117.140625 166.636719 117.140625 162.144531 C 117.140625 138.238281 136.589844 118.789062 160.5 118.789062 C 174.097656 118.789062 187.078125 125.296875 195.234375 136.195312 C 197.925781 139.789062 197.1875 144.882812 193.59375 147.574219 C 190 150.261719 184.90625 149.527344 182.214844 145.933594 C 177.039062 139.015625 169.125 135.046875 160.5 135.046875 C 145.554688 135.046875 133.398438 147.203125 133.398438 162.144531 C 133.398438 166.636719 129.761719 170.273438 125.269531 170.273438 " fill-opacity="1" fill-rule="nonzero"/></g><path fill="#7ed957" d="M 160.5 172.003906 C 158.359375 172.003906 156.261719 171.136719 154.753906 169.625 C 153.238281 168.113281 152.371094 166.015625 152.371094 163.875 C 152.371094 161.734375 153.238281 159.636719 154.753906 158.128906 C 156.261719 156.613281 158.359375 155.746094 160.5 155.746094 C 162.640625 155.746094 164.734375 156.613281 166.25 158.128906 C 167.757812 159.636719 168.628906 161.734375 168.628906 163.875 C 168.628906 166.015625 167.757812 168.113281 166.25 169.625 C 164.734375 171.136719 162.640625 172.003906 160.5 172.003906 " fill-opacity="1" fill-rule="nonzero"/><g fill="#3bb371" fill-opacity="1"><g transform="translate(13.325642, 211.885826)"><g><path d="M 14.703125 -57.8125 L 24.859375 -57.8125 L 23.859375 -33.4375 C 23.804688 -32.507812 23.765625 -31.546875 23.734375 -30.546875 C 23.710938 -29.554688 23.675781 -28.625 23.625 -27.75 C 23.5625 -26.757812 23.503906 -25.769531 23.453125 -24.78125 L 23.703125 -24.78125 C 23.972656 -25.769531 24.25 -26.757812 24.53125 -27.75 C 25.019531 -29.507812 25.625 -31.40625 26.34375 -33.4375 L 34.359375 -57.8125 L 44.84375 -57.8125 L 36.328125 0 L 27.25 0 L 31.875 -26.421875 C 32.144531 -27.859375 32.445312 -29.523438 32.78125 -31.421875 C 33.113281 -33.316406 33.445312 -35.117188 33.78125 -36.828125 C 34.164062 -38.804688 34.578125 -40.84375 35.015625 -42.9375 L 34.765625 -42.9375 L 24.03125 -9.90625 L 17.84375 -9.90625 L 19.078125 -42.9375 L 18.828125 -42.9375 C 18.441406 -40.84375 18.113281 -38.804688 17.84375 -36.828125 C 17.5625 -35.117188 17.28125 -33.316406 17 -31.421875 C 16.726562 -29.523438 16.457031 -27.859375 16.1875 -26.421875 L 11.5625 0 L 2.484375 0 Z M 14.703125 -57.8125 "/></g></g></g><g fill="#3bb371" fill-opacity="1"><g transform="translate(52.132795, 211.885826)"><g><path d="M 9.328125 0.828125 C 7.128906 0.828125 5.503906 0.195312 4.453125 -1.0625 C 3.410156 -2.332031 2.890625 -3.988281 2.890625 -6.03125 C 2.890625 -6.851562 2.972656 -7.757812 3.140625 -8.75 L 4.375 -15.859375 C 5.09375 -19.816406 6.484375 -22.632812 8.546875 -24.3125 C 10.609375 -26 13.398438 -26.84375 16.921875 -26.84375 L 19.40625 -26.84375 L 20.734375 -34.265625 C 20.785156 -34.597656 20.820312 -34.898438 20.84375 -35.171875 C 20.875 -35.453125 20.890625 -35.703125 20.890625 -35.921875 C 20.890625 -36.691406 20.707031 -37.226562 20.34375 -37.53125 C 19.988281 -37.832031 19.59375 -37.984375 19.15625 -37.984375 C 18.550781 -37.984375 18.082031 -37.722656 17.75 -37.203125 C 17.425781 -36.679688 17.125 -35.785156 16.84375 -34.515625 L 16.015625 -30.140625 L 7.34375 -30.140625 L 8.09375 -34.4375 C 8.695312 -37.90625 9.945312 -40.601562 11.84375 -42.53125 C 13.75 -44.457031 16.269531 -45.421875 19.40625 -45.421875 C 22.539062 -45.421875 24.972656 -44.566406 26.703125 -42.859375 C 28.441406 -41.148438 29.3125 -38.78125 29.3125 -35.75 C 29.3125 -34.820312 29.226562 -33.78125 29.0625 -32.625 L 23.28125 0.40625 L 17.921875 0.40625 L 16.1875 -3.140625 C 15.519531 -2.421875 14.832031 -1.757812 14.125 -1.15625 C 13.519531 -0.65625 12.800781 -0.203125 11.96875 0.203125 C 11.144531 0.617188 10.265625 0.828125 9.328125 0.828125 Z M 13.546875 -6.609375 C 13.984375 -6.609375 14.378906 -6.757812 14.734375 -7.0625 C 15.097656 -7.363281 15.414062 -7.707031 15.6875 -8.09375 C 15.96875 -8.53125 16.21875 -9.050781 16.4375 -9.65625 L 18.171875 -19.8125 L 16.6875 -19.8125 C 15.851562 -19.8125 15.117188 -19.519531 14.484375 -18.9375 C 13.859375 -18.363281 13.40625 -17.363281 13.125 -15.9375 L 12.140625 -10.328125 C 12.023438 -9.992188 11.96875 -9.6875 11.96875 -9.40625 C 11.96875 -9.132812 11.96875 -8.890625 11.96875 -8.671875 C 11.96875 -7.296875 12.492188 -6.609375 13.546875 -6.609375 Z M 13.546875 -6.609375 "/></g></g></g><g fill="#3bb371" fill-opacity="1"><g transform="translate(77.563865, 211.885826)"><g><path d="M 10.8125 -45 L 16.1875 -45 L 17.75 -41.703125 C 18.300781 -42.359375 18.9375 -42.960938 19.65625 -43.515625 C 20.257812 -43.953125 20.972656 -44.378906 21.796875 -44.796875 C 22.628906 -45.210938 23.507812 -45.421875 24.4375 -45.421875 C 26.863281 -45.421875 28.613281 -44.691406 29.6875 -43.234375 C 30.757812 -41.773438 31.296875 -39.914062 31.296875 -37.65625 C 31.296875 -36.769531 31.210938 -35.832031 31.046875 -34.84375 L 26.171875 -7.515625 C 25.179688 -1.953125 22.484375 0.828125 18.078125 0.828125 C 17.035156 0.828125 16.140625 0.644531 15.390625 0.28125 C 14.648438 -0.0703125 14.035156 -0.46875 13.546875 -0.90625 C 12.941406 -1.40625 12.445312 -1.984375 12.0625 -2.640625 L 9.25 13.21875 L 0.578125 13.21875 Z M 15.53125 -6.609375 C 16.132812 -6.609375 16.640625 -6.867188 17.046875 -7.390625 C 17.460938 -7.910156 17.78125 -8.804688 18 -10.078125 L 22.21875 -34.265625 C 22.320312 -34.597656 22.375 -34.898438 22.375 -35.171875 C 22.375 -35.453125 22.375 -35.703125 22.375 -35.921875 C 22.375 -36.691406 22.179688 -37.226562 21.796875 -37.53125 C 21.410156 -37.832031 20.972656 -37.984375 20.484375 -37.984375 C 19.929688 -37.984375 19.488281 -37.816406 19.15625 -37.484375 C 18.820312 -37.160156 18.546875 -36.773438 18.328125 -36.328125 C 18.109375 -35.835938 17.890625 -35.289062 17.671875 -34.6875 L 13.296875 -9.90625 C 13.296875 -7.707031 14.039062 -6.609375 15.53125 -6.609375 Z M 15.53125 -6.609375 "/></g></g></g><g fill="#2e8b58" fill-opacity="1"><g transform="translate(206.246551, 211.885826)"><g><path d="M 10.984375 -57.8125 L 19.90625 -57.8125 L 16.921875 -24.78125 C 16.816406 -23.34375 16.679688 -21.8125 16.515625 -20.1875 C 16.347656 -18.5625 16.179688 -17.085938 16.015625 -15.765625 C 15.796875 -14.171875 15.601562 -12.628906 15.4375 -11.140625 L 15.765625 -11.140625 C 16.097656 -12.628906 16.457031 -14.171875 16.84375 -15.765625 C 17.175781 -17.085938 17.535156 -18.5625 17.921875 -20.1875 C 18.304688 -21.8125 18.71875 -23.34375 19.15625 -24.78125 L 28.15625 -57.8125 L 37.40625 -57.8125 L 19.8125 0 L 7.4375 0 Z M 10.984375 -57.8125 "/></g></g></g><g fill="#2e8b58" fill-opacity="1"><g transform="translate(234.319817, 211.885826)"><g><path d="M 10.5625 -44.59375 L 19.234375 -44.59375 L 11.390625 0 L 2.71875 0 Z M 16.265625 -48.71875 C 14.835938 -48.71875 13.679688 -49.144531 12.796875 -50 C 11.921875 -50.851562 11.484375 -51.914062 11.484375 -53.1875 C 11.484375 -54.832031 11.988281 -56.148438 13 -57.140625 C 14.019531 -58.128906 15.25 -58.625 16.6875 -58.625 C 18.113281 -58.625 19.265625 -58.195312 20.140625 -57.34375 C 21.023438 -56.5 21.46875 -55.441406 21.46875 -54.171875 C 21.46875 -52.515625 20.957031 -51.191406 19.9375 -50.203125 C 18.925781 -49.210938 17.703125 -48.71875 16.265625 -48.71875 Z M 16.265625 -48.71875 "/></g></g></g><g fill="#2e8b58" fill-opacity="1"><g transform="translate(248.43902, 211.885826)"><g><path d="M 13.625 0.828125 C 10.488281 0.828125 8.066406 -0.0664062 6.359375 -1.859375 C 4.648438 -3.648438 3.796875 -6.003906 3.796875 -8.921875 C 3.796875 -9.410156 3.820312 -9.898438 3.875 -10.390625 C 3.9375 -10.890625 4.019531 -11.445312 4.125 -12.0625 L 8.09375 -34.4375 C 8.75 -38.238281 10.082031 -41.019531 12.09375 -42.78125 C 14.101562 -44.539062 16.675781 -45.421875 19.8125 -45.421875 C 23.125 -45.421875 25.617188 -44.539062 27.296875 -42.78125 C 28.972656 -41.019531 29.8125 -38.707031 29.8125 -35.84375 C 29.8125 -35.34375 29.78125 -34.816406 29.71875 -34.265625 C 29.664062 -33.710938 29.585938 -33.132812 29.484375 -32.53125 L 27.078125 -19.40625 L 14.125 -19.40625 L 12.546875 -10.328125 C 12.441406 -9.710938 12.390625 -9.335938 12.390625 -9.203125 C 12.390625 -9.066406 12.390625 -8.863281 12.390625 -8.59375 C 12.390625 -7.988281 12.566406 -7.503906 12.921875 -7.140625 C 13.273438 -6.785156 13.703125 -6.609375 14.203125 -6.609375 C 14.753906 -6.609375 15.265625 -6.828125 15.734375 -7.265625 C 16.203125 -7.703125 16.570312 -8.722656 16.84375 -10.328125 L 17.5 -14.453125 L 26.171875 -14.453125 L 25.515625 -10.15625 C 24.960938 -6.6875 23.664062 -3.988281 21.625 -2.0625 C 19.59375 -0.132812 16.925781 0.828125 13.625 0.828125 Z M 19.65625 -26.421875 L 21.0625 -34.109375 C 21.113281 -34.378906 21.148438 -34.664062 21.171875 -34.96875 C 21.203125 -35.269531 21.21875 -35.53125 21.21875 -35.75 C 21.21875 -36.582031 21.039062 -37.160156 20.6875 -37.484375 C 20.332031 -37.816406 19.929688 -37.984375 19.484375 -37.984375 C 18.828125 -37.984375 18.273438 -37.722656 17.828125 -37.203125 C 17.390625 -36.679688 17.035156 -35.703125 16.765625 -34.265625 L 15.359375 -26.421875 Z M 19.65625 -26.421875 "/></g></g></g><g fill="#2e8b58" fill-opacity="1"><g transform="translate(274.200361, 211.885826)"><g><path d="M 8.265625 -44.59375 L 16.765625 -44.59375 L 14.609375 -23.125 C 14.503906 -22.070312 14.378906 -20.832031 14.234375 -19.40625 C 14.097656 -17.976562 13.953125 -16.628906 13.796875 -15.359375 C 13.566406 -13.867188 13.375 -12.328125 13.21875 -10.734375 L 13.453125 -10.734375 C 13.785156 -12.160156 14.144531 -13.59375 14.53125 -15.03125 C 14.863281 -16.289062 15.222656 -17.632812 15.609375 -19.0625 C 15.992188 -20.5 16.351562 -21.851562 16.6875 -23.125 L 23.375 -44.59375 L 31.21875 -44.59375 L 29.890625 -23.125 C 29.835938 -22.070312 29.726562 -20.84375 29.5625 -19.4375 C 29.394531 -18.039062 29.210938 -16.691406 29.015625 -15.390625 C 28.828125 -14.097656 28.675781 -13 28.5625 -12.09375 C 28.457031 -11.1875 28.40625 -10.734375 28.40625 -10.734375 L 28.65625 -10.734375 C 29.039062 -12.222656 29.425781 -13.707031 29.8125 -15.1875 C 30.144531 -16.457031 30.503906 -17.804688 30.890625 -19.234375 C 31.273438 -20.671875 31.628906 -21.96875 31.953125 -23.125 L 37.828125 -44.59375 L 46.25 -44.59375 L 32.625 0 L 21.96875 0 L 23.78125 -19.8125 C 23.894531 -20.863281 23.992188 -21.976562 24.078125 -23.15625 C 24.160156 -24.34375 24.253906 -25.457031 24.359375 -26.5 C 24.472656 -27.71875 24.613281 -28.929688 24.78125 -30.140625 L 24.53125 -30.140625 C 24.25 -28.984375 23.945312 -27.828125 23.625 -26.671875 C 23.34375 -25.679688 23.019531 -24.566406 22.65625 -23.328125 C 22.300781 -22.085938 21.988281 -20.914062 21.71875 -19.8125 L 16.1875 0 L 5.375 0 Z M 8.265625 -44.59375 "/></g></g></g><g fill="#2e8b58" fill-opacity="1"><g transform="translate(313.007513, 211.885826)"><g><path d="M 13.625 0.828125 C 10.488281 0.828125 8.066406 -0.0664062 6.359375 -1.859375 C 4.648438 -3.648438 3.796875 -6.003906 3.796875 -8.921875 C 3.796875 -9.410156 3.820312 -9.898438 3.875 -10.390625 C 3.9375 -10.890625 4.019531 -11.445312 4.125 -12.0625 L 8.09375 -34.4375 C 8.75 -38.238281 10.082031 -41.019531 12.09375 -42.78125 C 14.101562 -44.539062 16.675781 -45.421875 19.8125 -45.421875 C 23.125 -45.421875 25.617188 -44.539062 27.296875 -42.78125 C 28.972656 -41.019531 29.8125 -38.707031 29.8125 -35.84375 C 29.8125 -35.34375 29.78125 -34.816406 29.71875 -34.265625 C 29.664062 -33.710938 29.585938 -33.132812 29.484375 -32.53125 L 27.078125 -19.40625 L 14.125 -19.40625 L 12.546875 -10.328125 C 12.441406 -9.710938 12.390625 -9.335938 12.390625 -9.203125 C 12.390625 -9.066406 12.390625 -8.863281 12.390625 -8.59375 C 12.390625 -7.988281 12.566406 -7.503906 12.921875 -7.140625 C 13.273438 -6.785156 13.703125 -6.609375 14.203125 -6.609375 C 14.753906 -6.609375 15.265625 -6.828125 15.734375 -7.265625 C 16.203125 -7.703125 16.570312 -8.722656 16.84375 -10.328125 L 17.5 -14.453125 L 26.171875 -14.453125 L 25.515625 -10.15625 C 24.960938 -6.6875 23.664062 -3.988281 21.625 -2.0625 C 19.59375 -0.132812 16.925781 0.828125 13.625 0.828125 Z M 19.65625 -26.421875 L 21.0625 -34.109375 C 21.113281 -34.378906 21.148438 -34.664062 21.171875 -34.96875 C 21.203125 -35.269531 21.21875 -35.53125 21.21875 -35.75 C 21.21875 -36.582031 21.039062 -37.160156 20.6875 -37.484375 C 20.332031 -37.816406 19.929688 -37.984375 19.484375 -37.984375 C 18.828125 -37.984375 18.273438 -37.722656 17.828125 -37.203125 C 17.390625 -36.679688 17.035156 -35.703125 16.765625 -34.265625 L 15.359375 -26.421875 Z M 19.65625 -26.421875 "/></g></g></g><g fill="#2e8b58" fill-opacity="1"><g transform="translate(338.768854, 211.885826)"><g><path d="M 10.8125 -45 L 16.1875 -45 L 17.75 -41.78125 C 18.25 -42.445312 18.800781 -43.050781 19.40625 -43.59375 C 19.957031 -44.039062 20.644531 -44.457031 21.46875 -44.84375 C 22.289062 -45.226562 23.28125 -45.421875 24.4375 -45.421875 C 24.9375 -45.421875 25.460938 -45.363281 26.015625 -45.25 C 26.234375 -45.195312 26.425781 -45.171875 26.59375 -45.171875 L 24.359375 -35.921875 C 24.085938 -35.972656 23.8125 -36.03125 23.53125 -36.09375 C 23.257812 -36.144531 22.957031 -36.195312 22.625 -36.25 C 22.289062 -36.300781 21.90625 -36.328125 21.46875 -36.328125 C 20.644531 -36.328125 19.957031 -36.160156 19.40625 -35.828125 C 18.851562 -35.503906 18.441406 -35.125 18.171875 -34.6875 C 17.785156 -34.1875 17.507812 -33.632812 17.34375 -33.03125 L 11.5625 0 L 2.890625 0 Z M 10.8125 -45 "/></g></g></g></svg>