<svg xmlns="http://www.w3.org/2000/svg" xmlns:xlink="http://www.w3.org/1999/xlink" width="500" zoomAndPan="magnify" viewBox="0 0 375 374.999991" height="500" preserveAspectRatio="xMidYMid meet" version="1.0"><defs><clipPath id="7c8303c92b"><path d="M 166 44 L 301.074219 44 L 301.074219 367.8125 L 166 367.8125 Z M 166 44 " clip-rule="nonzero"/></clipPath><clipPath id="3d3e07615f"><path d="M 73.824219 99 L 209 99 L 209 367.8125 L 73.824219 367.8125 Z M 73.824219 99 " clip-rule="nonzero"/></clipPath><clipPath id="01530ffb5d"><path d="M 73.824219 7.0625 L 283 7.0625 L 283 143 L 73.824219 143 Z M 73.824219 7.0625 " clip-rule="nonzero"/></clipPath></defs><g clip-path="url(#7c8303c92b)"><path fill="#018f4b" d="M 187.472656 367.597656 C 184.554688 367.597656 181.585938 366.996094 178.746094 365.71875 C 168.011719 360.894531 163.21875 348.277344 168.050781 337.542969 L 252.878906 148.839844 C 256.628906 140.039062 258.527344 130.6875 258.527344 121.03125 C 258.527344 105.5625 253.652344 90.867188 244.417969 78.527344 C 237.367188 69.101562 239.292969 55.75 248.71875 48.699219 C 258.140625 41.644531 271.5 43.570312 278.546875 52.992188 C 293.335938 72.757812 301.152344 96.289062 301.152344 121.03125 C 301.152344 136.339844 298.152344 151.199219 292.234375 165.210938 C 292.132812 165.46875 292.023438 165.722656 291.910156 165.976562 L 206.925781 355.019531 C 203.375 362.917969 195.605469 367.597656 187.472656 367.597656 " fill-opacity="1" fill-rule="nonzero"/></g><g clip-path="url(#3d3e07615f)"><path fill="#7ed957" d="M 187.496094 367.597656 C 179.367188 367.597656 171.601562 362.917969 168.050781 355.019531 L 83.0625 165.976562 C 82.945312 165.71875 82.839844 165.464844 82.734375 165.207031 C 76.816406 151.195312 73.816406 136.335938 73.816406 121.03125 C 73.816406 109.261719 83.359375 99.71875 95.128906 99.71875 C 106.898438 99.71875 116.441406 109.261719 116.441406 121.03125 C 116.441406 130.683594 118.34375 140.039062 122.09375 148.84375 L 206.925781 337.542969 C 211.75 348.277344 206.957031 360.894531 196.226562 365.71875 C 193.390625 366.996094 190.417969 367.597656 187.496094 367.597656 " fill-opacity="1" fill-rule="nonzero"/></g><g clip-path="url(#01530ffb5d)"><path fill="#00bf63" d="M 95.128906 142.34375 C 83.359375 142.34375 73.816406 132.800781 73.816406 121.03125 C 73.816406 58.355469 124.808594 7.367188 187.488281 7.367188 C 223.132812 7.367188 257.171875 24.421875 278.546875 52.992188 C 285.601562 62.417969 283.675781 75.773438 274.25 82.824219 C 264.824219 89.875 251.472656 87.953125 244.417969 78.527344 C 230.847656 60.390625 210.097656 49.988281 187.488281 49.988281 C 148.3125 49.988281 116.441406 81.859375 116.441406 121.03125 C 116.441406 132.800781 106.898438 142.34375 95.128906 142.34375 " fill-opacity="1" fill-rule="nonzero"/></g><path fill="#7ed957" d="M 187.488281 146.875 C 181.871094 146.875 176.378906 144.597656 172.421875 140.640625 C 168.449219 136.671875 166.175781 131.179688 166.175781 125.5625 C 166.175781 119.949219 168.449219 114.457031 172.421875 110.5 C 176.378906 106.53125 181.871094 104.25 187.488281 104.25 C 193.097656 104.25 198.59375 106.53125 202.5625 110.5 C 206.519531 114.457031 208.800781 119.949219 208.800781 125.5625 C 208.800781 131.179688 206.519531 136.671875 202.5625 140.640625 C 198.59375 144.597656 193.097656 146.875 187.488281 146.875 " fill-opacity="1" fill-rule="nonzero"/></svg>