<svg xmlns="http://www.w3.org/2000/svg" xmlns:xlink="http://www.w3.org/1999/xlink" width="1012" zoomAndPan="magnify" viewBox="0 0 759 386.250002" height="515" preserveAspectRatio="xMidYMid meet" version="1.0"><defs><clipPath id="8f7e122e7e"><path d="M 718 327 L 757.515625 327 L 757.515625 361 L 718 361 Z M 718 327 " clip-rule="nonzero"/></clipPath><clipPath id="7bf7c85ab3"><path d="M 0.734375 23 L 265 23 L 265 385.105469 L 0.734375 385.105469 Z M 0.734375 23 " clip-rule="nonzero"/></clipPath><clipPath id="20e2bc7208"><path d="M 158 10.082031 L 341 10.082031 L 341 64 L 158 64 Z M 158 10.082031 " clip-rule="nonzero"/></clipPath><clipPath id="8de3523ac4"><path d="M 253.933594 0 L 292 0 L 292 53.894531 L 253.933594 53.894531 Z M 253.933594 0 " clip-rule="nonzero"/></clipPath><clipPath id="c2193c4450"><path d="M 104.132812 116.371094 L 142.308594 116.371094 L 142.308594 170.269531 L 104.132812 170.269531 Z M 104.132812 116.371094 " clip-rule="nonzero"/></clipPath><clipPath id="cb4af2f736"><path d="M 226.488281 235.296875 L 264.664062 235.296875 L 264.664062 289.195312 L 226.488281 289.195312 Z M 226.488281 235.296875 " clip-rule="nonzero"/></clipPath><clipPath id="a30b7fcc8f"><path d="M 391.621094 250.207031 L 429.796875 250.207031 L 429.796875 304.101562 L 391.621094 304.101562 Z M 391.621094 250.207031 " clip-rule="nonzero"/></clipPath><clipPath id="82f34196bd"><path d="M 567.511719 143.449219 L 605.691406 143.449219 L 605.691406 197.34375 L 567.511719 197.34375 Z M 567.511719 143.449219 " clip-rule="nonzero"/></clipPath><clipPath id="8ff848f580"><path d="M 529.605469 116.371094 L 567.78125 116.371094 L 567.78125 170.269531 L 529.605469 170.269531 Z M 529.605469 116.371094 " clip-rule="nonzero"/></clipPath><clipPath id="1eb6b11500"><path d="M 391.621094 60.28125 L 429.796875 60.28125 L 429.796875 114.175781 L 391.621094 114.175781 Z M 391.621094 60.28125 " clip-rule="nonzero"/></clipPath></defs><path fill="#d5edd3" d="M 641.53125 167.800781 C 643.953125 168.460938 644.6875 158.40625 640.136719 159.800781 C 635.585938 161.195312 638.667969 166.996094 641.53125 167.800781 Z M 641.53125 167.800781 " fill-opacity="1" fill-rule="nonzero"/><path fill="#d5edd3" d="M 432.949219 18.226562 C 432.949219 18.226562 431.410156 20.355469 435.078125 20.355469 C 438.820312 20.355469 446.527344 17.863281 452.691406 17.863281 C 458.859375 17.863281 457.023438 15.734375 455.777344 15.734375 C 454.527344 15.734375 451.152344 12.355469 446.234375 12.652344 C 441.316406 12.945312 441.609375 15.144531 438.527344 15.144531 C 435.445312 15.144531 436.035156 14.191406 429.574219 14.558594 C 423.117188 14.851562 429.574219 17.640625 432.949219 18.226562 Z M 432.949219 18.226562 " fill-opacity="1" fill-rule="nonzero"/><path fill="#d5edd3" d="M 647.769531 197.304688 C 649.824219 198.699219 650.191406 201.121094 649.824219 204.9375 C 649.457031 208.753906 646.007812 208.386719 651.878906 210.808594 C 657.75 213.230469 664.722656 217.414062 662.960938 209.78125 C 661.199219 202.148438 662.59375 201.121094 656.355469 195.175781 C 650.117188 189.304688 649.75 193.121094 649.089844 188.203125 C 648.429688 183.359375 646.667969 174.332031 644.246094 177.78125 C 642.117188 180.867188 640.429688 181.964844 642.851562 187.175781 C 645.347656 192.460938 645.640625 195.910156 647.769531 197.304688 Z M 647.769531 197.304688 " fill-opacity="1" fill-rule="nonzero"/><path fill="#d5edd3" d="M 707.804688 241.707031 C 703.253906 236.863281 695.621094 233.339844 692.539062 233.707031 C 689.382812 234.074219 686.667969 238.917969 684.90625 237.15625 C 683.144531 235.394531 677.933594 227.101562 675.21875 229.523438 C 672.429688 231.945312 675.585938 234.734375 672.0625 234.734375 C 668.613281 234.734375 667.585938 238.917969 666.851562 233.339844 C 666.191406 227.761719 663.402344 224.972656 662.667969 229.15625 C 662.007812 233.339844 661.640625 236.128906 659.878906 232.972656 C 658.117188 229.816406 657.089844 231.945312 657.089844 228.789062 C 657.089844 225.632812 650.117188 222.183594 647.402344 225.632812 C 645.640625 227.835938 644.980469 228.054688 644.246094 232.898438 C 643.585938 237.746094 641.824219 245.378906 645.640625 243.320312 C 649.457031 241.265625 650.191406 242.953125 651.878906 240.53125 C 653.640625 238.109375 655.695312 236.714844 658.851562 238.109375 C 662.007812 239.503906 660.613281 239.503906 666.117188 238.773438 C 671.695312 238.109375 674.410156 238.109375 678.300781 240.53125 C 682.117188 242.953125 689.75 241.5625 689.75 243.984375 C 689.75 246.40625 681.75 248.164062 689.75 250.585938 C 697.75 253.011719 699.4375 258.585938 701.933594 255.796875 C 704.355469 253.011719 707.804688 249.195312 710.300781 251.980469 C 712.722656 254.769531 722.117188 262.402344 720.355469 258.21875 C 718.59375 254.039062 718.960938 250.222656 724.539062 245.742188 C 730.117188 241.265625 728.722656 239.140625 726.300781 239.140625 C 723.878906 239.140625 723.878906 242.292969 718.300781 242.957031 C 712.648438 243.835938 712.355469 246.550781 707.804688 241.707031 Z M 707.804688 241.707031 " fill-opacity="1" fill-rule="nonzero"/><path fill="#d5edd3" d="M 382.898438 24.832031 C 383.265625 24.90625 383.558594 24.980469 383.851562 25.054688 C 386.933594 26.300781 389.136719 24.46875 389.429688 21.972656 C 392.804688 17.054688 391.558594 26.007812 395.300781 24.46875 C 398.96875 22.925781 404.253906 19.183594 408.585938 17.054688 C 412.914062 14.925781 403.300781 15.804688 395.59375 14.558594 C 387.886719 13.3125 377.027344 15.511719 373.945312 17.640625 C 371.082031 19.621094 378.421875 23.511719 382.898438 24.832031 Z M 382.898438 24.832031 " fill-opacity="1" fill-rule="nonzero"/><path fill="#d5edd3" d="M 634.558594 209.414062 C 632.429688 212.128906 628.320312 218.074219 625.53125 220.203125 C 622.742188 222.257812 617.898438 219.542969 618.265625 224.386719 C 618.632812 229.230469 618.925781 231.359375 619.292969 234.808594 C 619.660156 238.257812 620.320312 240.386719 625.53125 240.386719 C 630.742188 240.386719 633.164062 242.148438 634.925781 241.414062 C 636.6875 240.753906 636.320312 237.597656 638.375 233.414062 C 640.429688 229.230469 643.953125 230.257812 642.558594 227.175781 C 641.164062 224.019531 641.164062 224.753906 641.164062 221.597656 C 641.164062 218.441406 642.925781 220.570312 641.898438 215.359375 C 640.796875 210.148438 636.980469 206.332031 634.558594 209.414062 Z M 634.558594 209.414062 " fill-opacity="1" fill-rule="nonzero"/><path fill="#d5edd3" d="M 646.449219 257.632812 C 651.367188 258.21875 655.109375 257.632812 658.484375 255.796875 C 661.859375 253.964844 660.320312 251.761719 660.027344 250.882812 C 659.730469 249.925781 657.238281 251.835938 653.859375 252.421875 C 650.484375 253.007812 649.53125 253.007812 645.199219 253.375 C 640.871094 253.671875 643.660156 251.835938 639.035156 251.542969 C 634.410156 251.25 629.789062 250.292969 624.503906 248.460938 C 619.21875 246.625 616.503906 245.082031 612.761719 243.835938 C 609.019531 242.589844 612.46875 240.460938 612.175781 235.175781 C 611.878906 229.890625 608.429688 232.09375 605.714844 230.257812 C 602.925781 228.421875 603.882812 224.386719 605.128906 225.632812 C 606.375 226.882812 606.667969 228.421875 606.667969 221.890625 C 606.667969 215.433594 600.796875 211.101562 597.128906 205.523438 C 593.386719 199.949219 594.046875 196.863281 594.339844 194.074219 C 594.632812 191.285156 601.164062 196.570312 604.542969 200.535156 C 607.917969 204.570312 607.917969 204.570312 609.824219 203.617188 C 611.660156 202.664062 617.238281 199.582031 618.484375 194.664062 C 619.734375 189.746094 608.578125 179.835938 607.035156 175.214844 C 605.496094 170.589844 609.164062 173.378906 611.074219 170.296875 C 612.90625 167.214844 615.109375 171.542969 613.863281 173.671875 C 612.613281 175.800781 614.15625 177.050781 615.402344 179.25 C 616.652344 181.378906 616.652344 179.25 617.898438 176.460938 C 619.148438 173.671875 618.191406 172.71875 620.394531 170.882812 C 622.597656 169.050781 630.890625 166.554688 633.089844 164.425781 C 635.292969 162.296875 636.832031 159.800781 639.550781 152.09375 C 642.339844 144.390625 639.257812 144.683594 638.007812 141.894531 C 636.761719 139.105469 633.089844 134.480469 630.890625 131.691406 C 628.761719 128.902344 630.59375 129.5625 632.136719 128.609375 C 633.679688 127.65625 632.429688 125.527344 628.761719 124.28125 C 625.019531 123.03125 625.679688 125.527344 622.300781 124.867188 C 618.925781 124.28125 620.761719 121.785156 624.429688 117.453125 C 628.171875 113.125 626.265625 118.410156 628.761719 120.242188 C 631.257812 122.078125 631.84375 118.703125 633.679688 119.65625 C 635.511719 120.609375 639.257812 122.445312 642.042969 126.113281 C 644.832031 129.785156 644.832031 134.113281 647.621094 133.820312 C 650.410156 133.527344 650.410156 132.28125 651.660156 129.492188 C 652.90625 126.703125 648.285156 124.207031 646.082031 122.078125 C 643.878906 119.949219 641.75 119.949219 643.585938 118.042969 C 645.421875 116.207031 643.878906 113.417969 644.832031 111.214844 C 645.789062 109.089844 649.164062 110.261719 652.539062 108.722656 C 655.914062 107.179688 656.210938 101.894531 656.210938 96.390625 C 656.210938 90.8125 653.421875 88.390625 651.878906 86.484375 C 650.339844 84.648438 653.714844 85.527344 656.503906 87.730469 C 659.292969 89.859375 663.621094 101.601562 664.503906 106.300781 C 665.457031 110.921875 664.796875 110.921875 668.539062 114.960938 C 672.28125 118.996094 671.035156 118.335938 669.785156 122.960938 C 668.539062 127.582031 665.457031 128.832031 660.832031 130.078125 C 656.210938 131.324219 657.75 132.207031 654.960938 136.902344 C 652.171875 141.527344 656.503906 141.820312 659 143.070312 C 661.492188 144.316406 662.667969 139.691406 665.824219 137.492188 C 668.90625 135.363281 672.28125 133.746094 677.566406 133.746094 C 682.851562 133.746094 676.027344 126.628906 675.730469 122.960938 C 675.4375 119.289062 675.144531 116.792969 673.898438 114.003906 C 672.648438 111.214844 675.144531 111.214844 678.8125 109.382812 C 682.484375 107.546875 682.191406 103.804688 680.0625 103.804688 C 677.933594 103.804688 676.027344 105.34375 671.109375 105.050781 C 666.191406 104.757812 667.4375 100.722656 666.191406 99.179688 C 664.941406 97.640625 663.402344 94.261719 663.109375 91.472656 C 662.816406 88.683594 658.484375 85.015625 655.402344 82.226562 C 652.320312 79.4375 650.484375 77.601562 650.484375 78.851562 C 650.484375 80.097656 648.648438 78.558594 644.320312 78.261719 C 639.988281 77.96875 639.035156 78.851562 635.367188 78.558594 C 631.625 78.261719 635.660156 72.097656 637.199219 67.769531 C 638.742188 63.4375 643.074219 65.933594 646.449219 65.933594 C 649.824219 65.933594 651.367188 66.226562 656.355469 67.472656 C 661.273438 68.722656 659.144531 64.390625 660.097656 61.015625 C 661.054688 57.640625 663.183594 59.476562 665.96875 60.722656 C 668.757812 61.96875 669.640625 62.265625 669.640625 59.476562 C 669.640625 56.6875 672.136719 56.097656 674.265625 58.519531 C 676.390625 61.015625 670.519531 66.226562 670.519531 66.226562 C 670.519531 66.226562 668.6875 71.804688 672.0625 73.640625 C 675.4375 75.472656 682.261719 83.546875 686.300781 86.335938 C 690.335938 89.125 687.546875 81.710938 687.546875 76.429688 C 687.546875 71.144531 683.878906 71.804688 681.089844 66.886719 C 678.300781 61.96875 680.136719 64.097656 685.417969 64.097656 C 690.703125 64.097656 690.996094 62.265625 692.246094 60.722656 C 693.492188 59.179688 694.375 58.886719 699.070312 58.886719 C 703.695312 58.886719 700.90625 57.054688 698.777344 54.558594 C 696.648438 52.0625 692.320312 52.722656 693.859375 51.179688 C 695.402344 49.640625 703.765625 52.136719 707.730469 53.675781 C 711.765625 55.21875 710.8125 53.96875 710.226562 50.300781 C 709.640625 46.632812 706.191406 49.347656 696.355469 45.675781 C 686.445312 42.007812 675.660156 39.804688 672.28125 39.804688 C 668.90625 39.804688 671.328125 37.675781 673.824219 37.675781 C 676.320312 37.675781 675.660156 35.550781 673.238281 34.300781 C 670.742188 33.054688 668.613281 34.007812 667.660156 36.796875 C 666.703125 39.585938 670.449219 39.878906 663.328125 39.878906 C 656.210938 39.878906 651 39.878906 642.632812 38.339844 C 634.265625 36.796875 631.183594 36.796875 624.0625 36.503906 C 616.945312 36.210938 617.605469 33.128906 610.191406 33.128906 C 602.78125 33.128906 605.273438 30.339844 602.191406 26.960938 C 599.109375 23.585938 597.570312 24.46875 588.320312 24.46875 C 579.074219 24.46875 583.992188 28.136719 585.828125 28.796875 C 587.660156 29.382812 592.652344 30.925781 596.027344 34.082031 C 599.402344 37.164062 589.863281 35.914062 585.828125 36.210938 C 581.789062 36.503906 582.15625 34.082031 577.460938 31.292969 C 572.835938 28.503906 561.386719 30.042969 554.929688 29.75 C 548.46875 29.457031 548.101562 29.75 545.679688 25.128906 C 543.1875 20.503906 537.976562 23 531.148438 23 C 524.324219 23 520.652344 19.621094 517.277344 17.421875 C 513.902344 15.292969 508.617188 14.925781 501.207031 13.75 C 493.792969 12.503906 497.828125 18.375 500.617188 18.667969 C 500.617188 18.667969 503.699219 19.917969 506.78125 20.210938 C 509.867188 20.503906 516.398438 20.796875 519.773438 24.832031 C 523.148438 28.871094 509.277344 27.328125 503.113281 30.707031 C 496.949219 34.082031 491.957031 32.539062 487.703125 34.375 C 483.371094 36.210938 489.828125 39.292969 491.445312 43.328125 C 492.984375 47.363281 491.445312 47.363281 488.65625 48.246094 C 485.867188 49.199219 489.609375 43.914062 488.363281 42.375 C 487.113281 40.832031 482.492188 32.832031 478.820312 30.339844 C 475.078125 27.84375 475.738281 32.464844 476.324219 35.914062 C 476.914062 39.292969 477.867188 39.292969 478.820312 41.789062 C 479.773438 44.28125 474.785156 41.789062 472.363281 39.953125 C 469.867188 38.117188 461.867188 42.449219 458.125 40.539062 C 454.453125 38.703125 459.371094 39.292969 459.371094 37.457031 C 459.371094 35.621094 455.042969 37.164062 453.792969 34.375 C 452.546875 31.585938 461.5 28.210938 467.078125 27.253906 C 472.65625 26.300781 471.996094 26.300781 471.996094 23.585938 C 471.996094 20.796875 462.085938 21.75 453.792969 25.714844 C 445.425781 29.75 447.628906 32.539062 446.382812 35.253906 C 445.132812 38.042969 449.171875 38.339844 451.003906 39.878906 C 452.839844 41.421875 448.875 42.007812 445.132812 43.253906 C 441.464844 44.503906 440.511719 43.253906 436.179688 44.796875 C 431.851562 46.335938 434.34375 48.171875 430.601562 49.714844 C 426.933594 51.253906 427.226562 51.253906 424.144531 52.503906 C 421.0625 53.75 424.730469 47.878906 429.0625 47.21875 C 433.390625 46.632812 432.144531 44.136719 430.894531 43.183594 C 429.648438 42.226562 421.648438 39.804688 412.988281 37.308594 C 404.328125 34.816406 390.457031 38.265625 385.832031 40.394531 C 381.210938 42.519531 381.503906 44.136719 380.914062 47.21875 C 380.328125 50.300781 369.761719 54.925781 364.550781 57.714844 C 359.265625 60.503906 363.960938 64.171875 365.503906 66.667969 C 367.042969 69.164062 370.421875 67.914062 374.75 66.667969 C 379.082031 65.417969 378.421875 70.703125 379.082031 72.539062 C 379.667969 74.375 382.164062 74.667969 386.199219 72.832031 C 390.238281 70.996094 389.28125 66.667969 389.28125 64.171875 C 389.28125 61.675781 388.328125 60.429688 391.117188 57.054688 C 393.90625 53.675781 396.402344 51.476562 398.824219 49.933594 C 401.320312 48.394531 400.953125 51.179688 397.28125 54.265625 C 393.613281 57.347656 396.035156 58.300781 397.871094 61.96875 C 399.703125 65.714844 403.445312 61.96875 408.070312 61.382812 C 412.695312 60.796875 404.035156 65.417969 400.660156 65.417969 C 397.28125 65.417969 400.660156 69.089844 398.53125 69.089844 C 396.402344 69.089844 396.035156 70.628906 395.742188 74.375 C 395.449219 78.117188 394.199219 77.164062 391.703125 78.117188 C 389.210938 79.070312 385.539062 79.363281 381.503906 78.410156 C 377.464844 77.457031 377.832031 73.785156 375.042969 71.289062 C 372.253906 68.796875 371.667969 72.539062 371.667969 74.078125 C 371.667969 75.621094 368.878906 78.996094 367.632812 78.996094 C 366.382812 78.996094 362.714844 82.738281 360.511719 85.824219 C 358.382812 88.90625 356.84375 87.070312 356.183594 85.824219 C 355.59375 84.574219 357.722656 82.738281 356.476562 79.65625 C 355.230469 76.574219 350.3125 74.078125 351.851562 66.960938 C 353.394531 59.84375 350.019531 63.585938 345.027344 64.171875 C 340.109375 64.757812 338.570312 66.960938 338.203125 68.796875 C 337.90625 70.628906 335.121094 74.375 332.035156 77.75 C 328.953125 81.125 331.082031 83.914062 332.625 87.65625 C 334.164062 91.402344 338.203125 86.410156 339.449219 83.328125 C 340.695312 80.246094 342.238281 78.703125 344.074219 80.246094 C 345.90625 81.785156 341.285156 84.574219 340.695312 88.246094 C 340.109375 91.988281 341.945312 91.621094 346.273438 90.371094 C 350.605469 89.125 348.402344 88.246094 351.851562 89.785156 C 355.230469 91.328125 348.769531 92.574219 344.734375 92.867188 C 340.695312 93.160156 342.238281 95.949219 345.6875 98.445312 C 349.0625 100.941406 347.523438 104.609375 345.394531 104.90625 C 343.265625 105.199219 339.230469 105.859375 333.0625 107.03125 C 326.898438 108.28125 332.476562 113.199219 331.230469 115.988281 C 329.980469 118.777344 329.6875 124.941406 332.476562 125.234375 C 335.265625 125.527344 335.265625 130.152344 333.726562 131.691406 C 332.183594 133.234375 331.890625 134.773438 328.148438 137.5625 C 324.402344 140.351562 327.191406 142.847656 326.019531 146.519531 C 324.769531 150.1875 321.6875 148.058594 318.019531 152.09375 C 314.347656 156.132812 312.734375 159.214844 310.019531 163.839844 C 307.230469 168.460938 306.9375 168.753906 310.3125 174.332031 C 313.6875 179.910156 310.3125 181.453125 307.523438 186.371094 C 304.734375 191.285156 308.476562 191.652344 309.652344 195.910156 C 310.898438 200.242188 313.394531 199.285156 314.277344 203.617188 C 315.230469 207.945312 316.402344 209.195312 320.734375 212.277344 C 325.0625 215.359375 329.394531 219.691406 331.523438 218.734375 C 333.652344 217.78125 337.101562 215.359375 344.21875 215.652344 C 351.339844 215.945312 348.84375 212.570312 356.257812 211.324219 C 363.667969 210.074219 359.632812 212.277344 360.585938 214.40625 C 361.539062 216.605469 365.503906 218.734375 371.082031 219.027344 C 376.660156 219.324219 372.035156 226.148438 371.667969 230.476562 C 371.375 234.808594 371.667969 234.808594 374.457031 238.476562 C 377.246094 242.148438 380.914062 250.515625 381.871094 254.84375 C 382.824219 259.175781 380.914062 264.09375 378.492188 268.128906 C 376 272.164062 376.953125 281.414062 382.164062 288.238281 C 387.449219 295.0625 384.292969 294.695312 384.292969 301.816406 C 384.292969 308.933594 388.035156 307.6875 390.75 311.722656 C 393.539062 315.761719 392.292969 323.171875 394.785156 327.136719 C 397.28125 331.171875 401.613281 327.429688 406.53125 325.59375 C 411.445312 323.757812 413.648438 324.347656 419.519531 320.015625 C 425.390625 315.6875 430.015625 307.027344 430.015625 304.605469 C 430.015625 302.109375 431.851562 301.226562 434.933594 299.980469 C 438.015625 298.734375 437.425781 290.734375 437.0625 288.53125 C 436.765625 286.402344 437.648438 284.496094 438.894531 283.246094 C 440.144531 282 447.847656 274.585938 450.636719 271.503906 C 453.425781 268.421875 450.933594 264.09375 450.34375 259.175781 C 449.757812 254.257812 447.847656 252.347656 447.847656 246.476562 C 447.847656 240.605469 446.015625 241.195312 456.214844 231.652344 C 466.417969 222.113281 475.957031 206.917969 476.914062 203.542969 C 477.867188 200.167969 477.5 197.378906 476.914062 194.882812 C 476.324219 192.386719 463.042969 197.378906 459.960938 197.378906 C 456.875 197.378906 451.296875 190.554688 450.710938 188.132812 C 450.125 185.636719 445.425781 183.214844 441.464844 179.472656 C 437.429688 175.800781 440.511719 170.515625 437.429688 166.480469 C 434.34375 162.445312 432.804688 156.574219 432.144531 153.195312 C 431.554688 149.820312 436.765625 155.691406 440.804688 160.316406 C 444.839844 164.9375 450.050781 173.597656 451.59375 176.683594 C 453.132812 179.765625 454.382812 184.386719 454.675781 188.132812 C 454.96875 191.800781 457.464844 192.460938 461.132812 192.167969 C 464.804688 191.875 477.792969 185.046875 482.417969 182.921875 C 487.039062 180.792969 492.617188 174.261719 494.746094 168.09375 C 496.875 161.929688 490.125 162.8125 487.039062 159.726562 C 483.957031 156.644531 483.957031 159.726562 480.214844 160.683594 C 476.546875 161.636719 473.390625 156.644531 467.519531 151.140625 C 461.648438 145.5625 465.390625 147.472656 466.5625 146.222656 C 467.738281 144.976562 473.683594 149.011719 477.058594 153.050781 C 480.433594 157.085938 481.097656 155.546875 485.058594 155.546875 C 489.097656 155.546875 489.976562 157.378906 495.261719 158.921875 C 500.546875 160.460938 503.261719 158.332031 507.8125 158.773438 C 512.289062 159.214844 511.628906 161.417969 514.78125 166.332031 C 517.867188 171.25 516.617188 169.710938 523.441406 170.371094 C 530.269531 170.957031 525.277344 170.371094 525.277344 174.699219 C 525.277344 179.03125 525.863281 180.570312 529.902344 185.855469 C 533.9375 191.140625 535.480469 200.976562 536.726562 205.964844 C 537.976562 210.882812 540.46875 205.964844 544.433594 205.964844 C 548.46875 205.964844 544.726562 209.339844 547.808594 214.332031 C 550.890625 219.25 553.09375 212.789062 553.09375 210.957031 C 553.09375 209.121094 551.257812 204.496094 549.425781 202.957031 C 547.589844 201.414062 545.09375 201.707031 547.222656 199.285156 C 549.425781 196.792969 547.515625 194.371094 547.515625 190.921875 C 547.515625 187.542969 547.808594 185.046875 549.351562 183.507812 C 550.890625 181.964844 556.46875 176.386719 559.84375 172.351562 C 563.222656 168.316406 566.011719 167.726562 570.632812 168.023438 C 575.257812 168.316406 571.589844 168.976562 574.378906 172.644531 C 577.167969 176.386719 577.753906 181.597656 580.835938 185.34375 C 583.917969 189.085938 584.210938 184.753906 586.707031 183.507812 C 589.203125 182.257812 587.660156 187.175781 589.496094 190.921875 C 591.332031 194.664062 590.082031 199.582031 590.082031 202.957031 C 590.082031 206.332031 594.121094 209.78125 596.542969 212.863281 C 599.035156 215.945312 598.082031 217.488281 596.542969 218.734375 C 595 219.984375 591.917969 215.652344 589.421875 213.15625 C 586.925781 210.664062 583.257812 212.203125 585.753906 214.992188 C 588.25 217.78125 589.789062 222.699219 592.578125 227.984375 C 595.367188 233.265625 601.238281 239.433594 605.273438 244.9375 C 609.3125 250.515625 622.230469 252.9375 627.21875 252.9375 C 631.625 252.714844 641.53125 257.046875 646.449219 257.632812 Z M 432.070312 137.785156 C 430.234375 141.453125 429.28125 143.949219 426.492188 143.070312 C 423.703125 142.113281 414.457031 142.480469 409.832031 140.941406 C 405.207031 139.398438 398.382812 136.609375 397.136719 139.984375 C 395.886719 143.363281 400.21875 146.152344 392.511719 143.363281 C 384.804688 140.574219 376.4375 137.195312 375.558594 134.703125 C 374.605469 132.207031 378.640625 125.453125 373.0625 125.453125 C 367.484375 125.453125 359.777344 125.160156 357.285156 126.996094 C 354.789062 128.832031 345.246094 132.28125 342.164062 131.324219 C 339.375 130.519531 335.046875 129.492188 340.035156 127.289062 C 344.953125 125.160156 350.824219 126.335938 351.484375 123.253906 C 352.074219 120.171875 347.15625 119.582031 352.074219 116.792969 C 356.988281 114.003906 355.15625 111.511719 358.53125 109.96875 C 361.90625 108.425781 366.53125 108.722656 369.027344 107.839844 C 371.523438 106.886719 368.070312 106.003906 373.0625 108.792969 C 377.980469 111.582031 381.0625 116.792969 383.558594 117.160156 C 386.054688 117.453125 387.59375 119.289062 386.054688 120.535156 C 384.511719 121.785156 382.015625 122.664062 381.136719 122.664062 C 380.183594 122.664062 379.59375 125.160156 380.546875 125.453125 C 381.503906 125.746094 383.632812 129.785156 385.171875 128.535156 C 386.714844 127.289062 385.171875 125.453125 387.960938 124.5 C 390.75 123.546875 393.539062 122.371094 392.292969 120.464844 C 391.042969 118.628906 389.796875 116.425781 392.292969 117.675781 C 394.785156 118.921875 396.914062 118.261719 394.125 115.546875 C 391.335938 112.757812 390.382812 112.757812 387.007812 110.261719 C 383.632812 107.765625 379.886719 106.519531 379.886719 104.683594 C 379.886719 102.847656 377.761719 99.398438 381.136719 100.648438 C 384.511719 101.894531 396.253906 108.355469 396.253906 110.847656 C 396.253906 113.34375 399.335938 117.675781 396.546875 119.804688 C 393.757812 121.929688 399.335938 122.59375 400.585938 123.839844 C 401.832031 125.085938 401.171875 128.464844 404.621094 127.875 C 407.996094 127.289062 410.492188 127.582031 408.65625 124.132812 C 406.824219 120.757812 403.742188 119.214844 406.824219 117.96875 C 409.90625 116.71875 410.566406 115.179688 411.445312 120.464844 C 412.402344 125.746094 411.152344 127.582031 418.566406 127.875 C 425.980469 128.167969 430.894531 126.042969 431.851562 128.167969 C 432.65625 130.371094 433.90625 134.113281 432.070312 137.785156 Z M 444.105469 114.664062 C 439.1875 114.371094 430.824219 112.832031 426.785156 112.832031 C 422.75 112.832031 421.207031 113.417969 421.207031 113.417969 C 417.832031 112.832031 409.757812 114.960938 413.796875 109.675781 C 417.832031 104.390625 415.335938 97.640625 420.253906 99.472656 C 425.171875 101.308594 425.539062 108.425781 428.621094 104.097656 C 431.703125 99.765625 435.078125 94.851562 436.035156 98.226562 C 436.988281 101.601562 431.703125 104.390625 438.160156 107.179688 C 444.695312 110.042969 449.023438 114.960938 444.105469 114.664062 Z M 473.757812 126.042969 C 469.132812 126.042969 463.554688 125.085938 463.554688 122.664062 L 463.554688 116.792969 C 461.058594 110.921875 457.976562 109.675781 457.976562 105.636719 C 457.976562 101.601562 460.472656 98.226562 465.390625 98.226562 C 470.308594 98.226562 472.800781 97.640625 469.058594 101.894531 C 465.390625 106.226562 461.941406 106.519531 466.929688 113.34375 C 471.921875 120.171875 478.378906 126.042969 473.757812 126.042969 Z M 473.757812 126.042969 " fill-opacity="1" fill-rule="nonzero"/><path fill="#d5edd3" d="M 710.226562 286.476562 C 707.070312 278.476562 707.070312 272.238281 705.382812 268.789062 C 703.621094 265.339844 705.015625 261.15625 699.804688 261.15625 C 697.675781 261.15625 697.75 262.550781 695.988281 267.027344 C 694.226562 271.503906 696.355469 279.871094 691.804688 278.84375 C 687.328125 277.816406 685.199219 275.6875 684.171875 271.210938 C 683.144531 266.734375 685.566406 262.550781 682.117188 262.550781 C 678.667969 262.550781 668.90625 260.128906 666.484375 263.945312 C 664.0625 267.761719 667.144531 269.15625 662.007812 269.15625 C 656.796875 269.15625 654.742188 269.15625 651.953125 272.605469 C 649.164062 276.054688 645.347656 285.816406 630.449219 286.476562 C 615.550781 287.136719 623.183594 295.136719 623.183594 303.796875 C 623.183594 312.457031 615.183594 317.667969 618.707031 320.824219 C 622.15625 323.980469 617.679688 328.089844 624.945312 325.667969 C 632.210938 323.246094 638.816406 322.511719 650.265625 320.824219 C 661.714844 319.0625 666.925781 318.402344 667.292969 323.980469 C 667.660156 329.558594 665.898438 325.742188 670.449219 326.769531 C 674.996094 327.796875 670.082031 335.136719 675.292969 335.796875 C 680.503906 336.457031 677.347656 340.273438 681.898438 340.273438 C 686.375 340.273438 688.136719 345.117188 684.320312 345.117188 C 680.503906 345.117188 674.925781 353.117188 680.503906 350.328125 C 686.078125 347.539062 691.585938 346.878906 691.585938 342.695312 C 691.585938 338.511719 690.925781 338.21875 697.457031 333.007812 C 704.0625 327.796875 719.328125 315.320312 718.300781 305.265625 C 717.199219 295.210938 713.382812 294.476562 710.226562 286.476562 Z M 710.226562 286.476562 " fill-opacity="1" fill-rule="nonzero"/><g clip-path="url(#8f7e122e7e)"><path fill="#d5edd3" d="M 755.730469 328.164062 C 752.941406 326.769531 752.941406 329.191406 751.253906 334.402344 C 749.492188 339.613281 740.832031 341.667969 739.4375 342.769531 C 738.042969 343.796875 735.253906 346.953125 735.253906 346.953125 C 728.648438 351.136719 715.804688 355.316406 718.960938 358.769531 C 722.117188 362.21875 724.171875 360.164062 731.804688 356.347656 C 739.4375 352.53125 741.492188 347.683594 745.675781 344.898438 C 749.859375 342.109375 752.28125 342.476562 755.363281 339.023438 C 758.519531 335.429688 758.519531 329.558594 755.730469 328.164062 Z M 755.730469 328.164062 " fill-opacity="1" fill-rule="nonzero"/></g><g clip-path="url(#7bf7c85ab3)"><path fill="#d5edd3" d="M 260.625 241.632812 C 255.046875 240.09375 254.753906 241.925781 254.167969 238.84375 C 253.582031 235.761719 249.835938 235.761719 246.460938 235.761719 C 243.085938 235.761719 241.835938 235.46875 239.050781 232.972656 C 236.261719 230.476562 230.386719 230.183594 228.554688 229.597656 C 226.71875 229.011719 227.601562 223.726562 223.929688 218.808594 C 220.1875 213.890625 212.480469 212.9375 207.5625 210.148438 C 202.644531 207.359375 204.1875 196.570312 197.070312 197.453125 C 189.949219 198.40625 189.363281 201.195312 182.832031 197.746094 C 176.371094 194.371094 172.042969 192.167969 168.59375 194.664062 C 165.214844 197.160156 160.886719 201.78125 158.683594 203.03125 C 156.554688 204.277344 152.8125 202.074219 150.683594 202.441406 C 148.554688 202.734375 146.0625 200.242188 144.519531 198.113281 C 142.980469 195.984375 147.308594 185.121094 143.273438 185.121094 C 139.234375 185.121094 134.023438 183.289062 134.023438 181.746094 C 134.023438 180.203125 142.390625 170.957031 139.894531 169.417969 C 137.402344 167.875 132.484375 168.828125 128.152344 174.699219 C 123.824219 180.570312 119.785156 180.277344 117.660156 178.078125 C 115.53125 175.949219 110.539062 163.25 114.574219 156.132812 C 118.613281 149.011719 125.070312 145.636719 129.988281 145.929688 C 134.90625 146.222656 134.320312 144.683594 139.234375 144.390625 C 144.152344 144.097656 150.390625 145.636719 151.566406 147.472656 C 152.8125 149.308594 150.316406 152.390625 153.402344 156.132812 C 156.484375 159.800781 158.316406 158.261719 158.683594 159.800781 C 158.976562 161.34375 156.1875 162.882812 155.015625 162.882812 C 153.765625 162.882812 143.566406 165.671875 147.601562 167.507812 C 151.640625 169.34375 158.757812 167.800781 160.300781 170.296875 C 161.839844 172.792969 155.382812 178.003906 164.628906 178.296875 C 173.875 178.589844 180.042969 179.835938 185.324219 180.132812 C 190.609375 180.425781 194.28125 180.71875 194.867188 181.964844 C 195.453125 183.214844 199.195312 177.34375 190.535156 177.34375 C 181.875 177.34375 175.125 172.425781 170.425781 171.472656 C 165.804688 170.515625 162.722656 167.433594 162.425781 163.765625 C 162.132812 160.023438 162.722656 157.304688 160.886719 154.222656 C 159.050781 151.140625 154.429688 143.730469 158.757812 140.648438 C 163.089844 137.5625 171.75 131.691406 173.875 127.65625 C 176.003906 123.621094 176.003906 122.738281 180.996094 119.65625 C 185.914062 116.574219 191.785156 112.539062 194.574219 109.75 C 197.363281 106.960938 201.984375 102.628906 202.941406 104.832031 C 203.894531 106.960938 208.222656 107.621094 213.433594 105.785156 C 218.71875 103.949219 225.179688 99.328125 219.601562 99.328125 C 214.023438 99.328125 210.644531 97.785156 212.1875 95.65625 C 213.730469 93.527344 208.519531 92.574219 206.902344 92.867188 C 205.363281 93.160156 205.363281 89.785156 210.644531 88.832031 C 215.929688 87.878906 211.601562 92.574219 215.929688 92.207031 C 220.261719 91.914062 223.050781 88.539062 226.132812 87.878906 C 229.214844 87.289062 230.460938 90.007812 226.425781 92.792969 C 222.390625 95.582031 221.140625 94.628906 226.425781 95.878906 C 231.710938 97.125 233.25 99.914062 236.332031 97.125 C 239.414062 94.335938 235.746094 93.382812 235.378906 89.710938 C 235.085938 86.042969 235.964844 79.21875 232.589844 76.722656 C 229.214844 74.226562 229.214844 71.144531 229.214844 68.722656 C 229.214844 66.226562 229.800781 61.015625 226.425781 63.4375 C 223.050781 65.933594 220.261719 67.472656 219.011719 66.226562 C 217.765625 64.980469 219.601562 62.484375 216.882812 60.648438 C 214.09375 58.8125 213.800781 56.027344 210.425781 56.320312 C 207.050781 56.613281 203.601562 53.824219 201.765625 57.859375 C 199.929688 61.898438 198.023438 65.273438 197.4375 66.519531 C 196.847656 67.769531 199.5625 72.097656 197.140625 74.226562 C 194.648438 76.355469 187.894531 79.511719 186.941406 81.640625 C 185.988281 83.769531 182.316406 89.34375 181.363281 85.675781 C 180.410156 82.007812 184.445312 76.429688 178.867188 74.886719 C 173.289062 73.347656 168.960938 74.59375 168.078125 71.21875 C 167.125 67.839844 164.703125 64.757812 170.207031 61.96875 C 175.785156 59.179688 181.363281 54.265625 186.574219 53.601562 C 191.859375 53.015625 188.113281 57.347656 192.445312 56.980469 C 196.773438 56.6875 191.859375 54.484375 197.070312 53.601562 C 202.351562 52.648438 201.398438 52.648438 199.859375 50.816406 C 198.316406 48.980469 199.269531 48.6875 203.234375 46.777344 C 207.269531 44.941406 204.1875 43.695312 208.152344 42.15625 C 212.1875 40.613281 213.066406 39.070312 215.269531 39.070312 C 217.398438 39.070312 217.105469 40.027344 215.855469 42.816406 C 214.609375 45.605469 213.730469 47.4375 217.398438 45.605469 C 221.140625 43.769531 222.976562 42.519531 220.1875 45.308594 C 217.398438 48.097656 215.5625 48.097656 211.527344 48.6875 C 207.492188 49.273438 208.738281 49.933594 210.574219 52.0625 C 212.40625 54.191406 217.03125 54.558594 218.574219 55.730469 C 220.113281 56.980469 221.949219 61.308594 225.691406 59.109375 C 229.359375 56.980469 226.644531 56.613281 231.5625 54.484375 C 236.480469 52.355469 243.597656 51.109375 243.011719 48.320312 C 242.425781 45.53125 237.433594 43.988281 236.847656 40.613281 C 236.261719 37.238281 243.671875 35.328125 234.058594 33.789062 C 224.515625 32.246094 230.023438 31 225.398438 31 C 220.773438 31 212.113281 31 209.03125 32.539062 C 205.949219 34.082031 204.113281 31.585938 202.574219 34.082031 C 201.03125 36.578125 202.867188 39.953125 201.324219 39.953125 C 199.785156 39.953125 196.996094 42.449219 195.746094 39.953125 C 194.5 37.457031 191.710938 35.035156 195.453125 34.082031 C 199.125 33.128906 199.785156 33.789062 200.371094 31 C 200.957031 28.210938 195.085938 28.503906 198.535156 27.917969 C 201.914062 27.328125 203.453125 28.210938 208.078125 28.210938 C 212.703125 28.210938 223.195312 30.042969 224.738281 27.253906 C 226.277344 24.46875 222.242188 24.46875 217.617188 24.171875 C 212.996094 23.878906 204.921875 22.339844 201.546875 23.878906 C 198.167969 25.421875 193.839844 27.917969 192.296875 30.339844 C 190.757812 32.832031 190.757812 29.75 187.675781 30.339844 C 184.59375 30.925781 179.308594 34.375 182.097656 36.210938 C 184.886719 38.042969 184.886719 40.246094 181.804688 40.246094 C 178.722656 40.246094 177.765625 43.328125 175.636719 43.328125 C 173.511719 43.328125 167.636719 43.035156 170.355469 41.492188 C 173.144531 39.953125 176.226562 39.953125 175.933594 36.210938 C 175.636719 32.464844 179.015625 31.292969 179.015625 30.042969 C 179.015625 28.796875 171.601562 32.832031 165.730469 31 C 159.859375 29.164062 157.363281 26.375 151.492188 26.667969 C 145.621094 26.960938 137.914062 34.667969 141.585938 35.328125 C 145.328125 35.914062 148.042969 34.742188 148.703125 36.578125 C 149.289062 38.410156 148.117188 39.953125 150.246094 40.90625 C 152.375 41.859375 156.410156 44.28125 151.199219 43.035156 C 145.988281 41.789062 148.410156 39.660156 140.410156 39.292969 C 132.410156 39 127.417969 36.503906 119.125 38.703125 C 110.757812 40.832031 112.007812 42.742188 106.429688 40.832031 C 100.851562 39 89.109375 34.667969 79.863281 36.503906 C 70.613281 38.339844 59.164062 41.421875 56.375 43.328125 C 53.585938 45.164062 59.164062 47 54.246094 47.363281 C 49.332031 47.660156 37.585938 47.363281 40.011719 50.449219 C 42.503906 53.53125 45.585938 53.824219 41.84375 54.484375 C 38.175781 55.070312 33.183594 55.4375 31.347656 58.152344 C 29.515625 60.941406 22.6875 62.484375 27.019531 63.730469 C 31.347656 64.980469 38.46875 67.769531 35.386719 68.0625 C 32.304688 68.355469 16.523438 74.519531 9.773438 76.0625 C 2.945312 77.601562 -2.558594 85.015625 3.3125 82.8125 C 10.800781 80.097656 30.835938 73.859375 34.503906 72.320312 C 38.175781 70.777344 39.789062 72.023438 39.421875 74.152344 C 39.128906 76.28125 43.753906 73.199219 47.421875 70.410156 C 51.09375 67.621094 51.09375 62.042969 54.246094 63.953125 C 57.332031 65.785156 59.164062 63.953125 61.660156 63.363281 C 64.15625 62.777344 66.578125 61.234375 68.78125 62.410156 C 70.90625 63.660156 76.484375 64.90625 78.027344 66.152344 C 79.566406 67.402344 80.15625 70.191406 78.613281 70.484375 C 77.074219 70.777344 76.777344 72.320312 77.074219 74.8125 C 77.367188 77.308594 78.613281 79.4375 75.53125 80.097656 C 72.449219 80.683594 73.035156 84.429688 74.945312 84.132812 C 76.777344 83.839844 78.027344 82.886719 78.320312 81.050781 C 78.613281 79.21875 82.652344 75.769531 82.0625 78.261719 C 81.476562 80.757812 79.933594 83.179688 79.933594 85.089844 C 79.933594 86.921875 77.808594 86.628906 77.441406 88.464844 C 77.144531 90.300781 77.734375 90.300781 79.273438 91.839844 C 80.816406 93.382812 79.863281 94.335938 79.566406 97.710938 C 79.273438 101.089844 70.027344 110.410156 68.78125 113.492188 C 67.53125 116.574219 68.191406 120.902344 68.191406 124.28125 C 68.191406 127.65625 66.945312 131.984375 70.320312 133.234375 C 73.695312 134.480469 73.992188 135.070312 73.992188 138.152344 C 73.992188 141.234375 73.992188 144.976562 75.824219 147.105469 C 77.660156 149.234375 76.777344 148.941406 76.777344 152.390625 C 76.777344 155.839844 78.90625 153.929688 79.273438 156.71875 C 79.566406 159.507812 77.734375 160.757812 80.816406 162.882812 C 83.898438 165.011719 87.273438 166.554688 85.734375 163.179688 C 84.191406 159.800781 83.238281 157.011719 81.695312 152.023438 C 80.15625 147.105469 79.199219 138.152344 81.109375 140.867188 C 82.945312 143.65625 85.441406 152.023438 88.226562 157.820312 C 91.015625 163.691406 94.394531 163.105469 94.394531 167.359375 C 94.394531 171.691406 91.015625 175.726562 97.769531 178.515625 C 104.59375 181.304688 109.511719 187.175781 113.546875 186.515625 C 117.585938 185.929688 120.007812 183.433594 121.546875 186.222656 C 123.089844 189.011719 126.464844 192.679688 130.207031 192.679688 C 133.878906 192.679688 135.125 195.175781 135.785156 198.847656 C 136.375 202.515625 138.867188 203.175781 142.613281 204.425781 C 146.28125 205.671875 147.234375 209.707031 150.023438 209.339844 C 152.8125 209.046875 156.484375 207.800781 156.484375 210.589844 C 156.484375 213.378906 157.730469 220.128906 153.105469 224.460938 C 148.484375 228.789062 146.28125 231.871094 148.777344 234.660156 C 151.273438 237.449219 149.070312 240.238281 147.824219 242.367188 C 146.574219 244.496094 148.777344 246.40625 151.199219 249.78125 C 153.695312 253.15625 157.070312 257.191406 159.199219 264.019531 C 161.328125 270.84375 164.484375 273.265625 169.695312 275.46875 C 174.976562 277.597656 178.941406 281.339844 178.941406 286.625 C 178.941406 291.90625 178.648438 309.816406 178.648438 315.027344 C 178.648438 320.308594 181.4375 325.519531 180.480469 329.558594 C 179.527344 333.59375 180.480469 336.96875 181.730469 338.511719 C 182.976562 340.054688 182.683594 343.429688 182.976562 346.878906 C 183.269531 350.253906 187.015625 347.832031 187.015625 350.914062 C 187.015625 353.996094 185.472656 358.621094 187.308594 360.164062 C 189.140625 361.703125 185.179688 367.28125 193.472656 372.492188 C 201.839844 377.777344 202.425781 378.070312 203.011719 378.949219 C 203.601562 379.90625 206.390625 377.117188 206.390625 378.65625 C 206.390625 380.199219 201.765625 384.820312 210.425781 384.820312 C 219.085938 384.820312 224.296875 386.070312 219.085938 382.03125 C 213.800781 377.996094 210.71875 379.90625 209.839844 375.867188 C 208.886719 371.832031 207.710938 372.492188 207.050781 369.703125 C 206.464844 366.914062 209.25 365.667969 208.296875 362.878906 C 207.34375 360.089844 203.675781 360.089844 203.96875 357.300781 C 204.261719 354.511719 206.464844 351.722656 207.050781 350.472656 C 207.636719 349.226562 207.636719 347.980469 206.097656 346.804688 C 204.554688 345.558594 204.847656 345.261719 207.050781 344.601562 C 209.25 344.015625 209.546875 344.898438 210.425781 341.8125 C 211.378906 338.730469 214.097656 339.023438 215.34375 338.144531 C 216.589844 337.191406 220.921875 336.015625 219.378906 331.980469 C 217.839844 327.941406 214.757812 326.109375 218.132812 326.109375 C 221.507812 326.109375 224.957031 325.816406 227.085938 321.484375 C 229.214844 317.15625 228.332031 316.199219 230.828125 312.824219 C 233.324219 309.449219 233.617188 306.660156 233.617188 304.164062 C 233.617188 301.667969 232.371094 299.246094 235.746094 297.707031 C 239.121094 296.164062 250.277344 294.328125 251.820312 289.707031 C 253.359375 285.082031 254.902344 280.164062 254.316406 275.175781 C 253.726562 270.257812 253.359375 267.175781 256.808594 263.136719 C 260.1875 259.101562 264.515625 255.726562 264.515625 252.054688 C 264.589844 248.386719 266.203125 243.175781 260.625 241.632812 Z M 260.625 241.632812 " fill-opacity="1" fill-rule="nonzero"/></g><g clip-path="url(#20e2bc7208)"><path fill="#d5edd3" d="M 317.796875 38.632812 C 321.175781 34.960938 320.292969 33.054688 324.917969 31.21875 C 329.542969 29.382812 328.292969 26.890625 327.707031 23.21875 C 327.121094 19.476562 327.707031 21.089844 329.542969 19.84375 C 331.375 18.59375 334.164062 17.714844 338.496094 17.347656 C 342.824219 17.054688 338.789062 15.511719 338.789062 13.679688 C 338.789062 11.84375 335.707031 12.136719 331.375 12.722656 C 327.046875 13.3125 327.707031 12.722656 324.550781 11.476562 C 321.46875 10.230469 303.265625 10.230469 298.570312 10.230469 C 293.945312 10.230469 285.578125 11.183594 281.25 11.476562 C 276.917969 11.769531 277.210938 11.476562 268.917969 10.523438 C 260.554688 9.566406 238.683594 10.230469 230.609375 11.109375 C 222.609375 12.0625 216.738281 12.945312 211.453125 16.394531 C 206.167969 19.769531 202.792969 18.523438 196.921875 19.183594 C 191.050781 19.769531 190.464844 19.769531 187.675781 19.769531 C 184.886719 19.769531 185.179688 18.226562 180.261719 20.0625 C 175.34375 21.898438 176.886719 23.144531 174.976562 20.652344 C 173.144531 18.15625 170.648438 20.652344 161.988281 22.777344 C 153.328125 24.90625 165.070312 27.402344 167.859375 28.355469 C 167.859375 28.355469 173.730469 28.0625 177.105469 27.109375 C 180.480469 26.15625 182.023438 28.355469 184.226562 27.695312 C 186.351562 27.109375 187.015625 24.90625 199.34375 22.117188 C 211.671875 19.328125 220.332031 21.53125 225.324219 23.660156 C 230.242188 25.789062 230.242188 24.613281 234.570312 21.824219 C 238.902344 19.035156 246.316406 16.90625 254.019531 15.660156 C 261.726562 14.414062 256.808594 17.199219 251.890625 19.035156 C 246.976562 20.871094 242.644531 20.285156 243.527344 23.367188 C 244.480469 26.449219 254.019531 25.496094 256.808594 25.496094 C 259.597656 25.496094 259.890625 29.824219 260.1875 32.320312 C 260.480469 34.816406 259.890625 36.0625 260.480469 38.484375 C 261.066406 40.980469 262.609375 40.613281 259.890625 43.109375 C 257.101562 45.605469 255.5625 45.238281 255.5625 49.566406 C 255.5625 53.898438 257.398438 58.519531 261.726562 61.601562 C 266.058594 64.6875 268.550781 64.980469 270.972656 60.0625 C 273.46875 55.144531 279.339844 52.0625 282.421875 50.519531 C 285.507812 48.980469 289.835938 50.519531 293.871094 46.851562 C 297.910156 43.183594 303.121094 44.722656 308.992188 42.816406 C 315.007812 41.125 314.347656 42.375 317.796875 38.632812 Z M 317.796875 38.632812 " fill-opacity="1" fill-rule="nonzero"/></g><path fill="#d5edd3" d="M 323.964844 45.75 C 314.714844 47 306.054688 43.914062 307.597656 48.832031 C 309.136719 53.75 309.433594 61.164062 314.421875 59.621094 C 322.9375 56.980469 332.332031 55.585938 330.203125 51.621094 C 327.925781 47.585938 333.210938 44.503906 323.964844 45.75 Z M 323.964844 45.75 " fill-opacity="1" fill-rule="nonzero"/><g clip-path="url(#8de3523ac4)"><path fill="#3bb371" d="M 272.886719 0 C 262.421875 0 253.933594 8.488281 253.933594 18.953125 C 253.933594 33.167969 272.886719 54.152344 272.886719 54.152344 C 272.886719 54.152344 291.839844 33.167969 291.839844 18.953125 C 291.839844 8.488281 283.351562 0 272.886719 0 Z M 272.886719 25.722656 C 269.152344 25.722656 266.117188 22.691406 266.117188 18.953125 C 266.117188 15.21875 269.152344 12.183594 272.886719 12.183594 C 276.625 12.183594 279.65625 15.21875 279.65625 18.953125 C 279.65625 22.691406 276.625 25.722656 272.886719 25.722656 Z M 272.886719 25.722656 " fill-opacity="1" fill-rule="nonzero"/></g><g clip-path="url(#c2193c4450)"><path fill="#3bb371" d="M 123.085938 116.371094 C 112.621094 116.371094 104.132812 124.863281 104.132812 135.328125 C 104.132812 149.542969 123.085938 170.527344 123.085938 170.527344 C 123.085938 170.527344 142.042969 149.542969 142.042969 135.328125 C 142.042969 124.863281 133.550781 116.371094 123.085938 116.371094 Z M 123.085938 142.09375 C 119.351562 142.09375 116.320312 139.0625 116.320312 135.328125 C 116.320312 131.589844 119.351562 128.558594 123.085938 128.558594 C 126.824219 128.558594 129.855469 131.589844 129.855469 135.328125 C 129.855469 139.0625 126.824219 142.09375 123.085938 142.09375 Z M 123.085938 142.09375 " fill-opacity="1" fill-rule="nonzero"/></g><g clip-path="url(#cb4af2f736)"><path fill="#3bb371" d="M 245.441406 235.296875 C 234.976562 235.296875 226.488281 243.785156 226.488281 254.25 C 226.488281 268.464844 245.441406 289.449219 245.441406 289.449219 C 245.441406 289.449219 264.398438 268.464844 264.398438 254.25 C 264.398438 243.785156 255.90625 235.296875 245.441406 235.296875 Z M 245.441406 261.019531 C 241.707031 261.019531 238.675781 257.988281 238.675781 254.25 C 238.675781 250.515625 241.707031 247.480469 245.441406 247.480469 C 249.179688 247.480469 252.210938 250.515625 252.210938 254.25 C 252.210938 257.988281 249.179688 261.019531 245.441406 261.019531 Z M 245.441406 261.019531 " fill-opacity="1" fill-rule="nonzero"/></g><g clip-path="url(#a30b7fcc8f)"><path fill="#3bb371" d="M 410.574219 250.207031 C 400.109375 250.207031 391.621094 258.695312 391.621094 269.160156 C 391.621094 283.375 410.574219 304.359375 410.574219 304.359375 C 410.574219 304.359375 429.527344 283.375 429.527344 269.160156 C 429.527344 258.695312 421.039062 250.207031 410.574219 250.207031 Z M 410.574219 275.929688 C 406.835938 275.929688 403.804688 272.894531 403.804688 269.160156 C 403.804688 265.421875 406.835938 262.390625 410.574219 262.390625 C 414.308594 262.390625 417.34375 265.421875 417.34375 269.160156 C 417.34375 272.894531 414.308594 275.929688 410.574219 275.929688 Z M 410.574219 275.929688 " fill-opacity="1" fill-rule="nonzero"/></g><g clip-path="url(#82f34196bd)"><path fill="#3bb371" d="M 586.46875 143.449219 C 576.003906 143.449219 567.511719 151.9375 567.511719 162.402344 C 567.511719 176.617188 586.46875 197.601562 586.46875 197.601562 C 586.46875 197.601562 605.421875 176.617188 605.421875 162.402344 C 605.421875 151.9375 596.933594 143.449219 586.46875 143.449219 Z M 586.46875 169.171875 C 582.730469 169.171875 579.699219 166.140625 579.699219 162.402344 C 579.699219 158.667969 582.730469 155.632812 586.46875 155.632812 C 590.203125 155.632812 593.234375 158.667969 593.234375 162.402344 C 593.234375 166.140625 590.203125 169.171875 586.46875 169.171875 Z M 586.46875 169.171875 " fill-opacity="1" fill-rule="nonzero"/></g><g clip-path="url(#8ff848f580)"><path fill="#3bb371" d="M 548.558594 116.371094 C 538.09375 116.371094 529.605469 124.863281 529.605469 135.328125 C 529.605469 149.542969 548.558594 170.527344 548.558594 170.527344 C 548.558594 170.527344 567.511719 149.542969 567.511719 135.328125 C 567.511719 124.863281 559.023438 116.371094 548.558594 116.371094 Z M 548.558594 142.09375 C 544.824219 142.09375 541.789062 139.0625 541.789062 135.328125 C 541.789062 131.589844 544.824219 128.558594 548.558594 128.558594 C 552.296875 128.558594 555.328125 131.589844 555.328125 135.328125 C 555.328125 139.0625 552.296875 142.09375 548.558594 142.09375 Z M 548.558594 142.09375 " fill-opacity="1" fill-rule="nonzero"/></g><g clip-path="url(#1eb6b11500)"><path fill="#3bb371" d="M 410.574219 60.28125 C 400.109375 60.28125 391.621094 68.769531 391.621094 79.234375 C 391.621094 93.449219 410.574219 114.433594 410.574219 114.433594 C 410.574219 114.433594 429.527344 93.449219 429.527344 79.234375 C 429.527344 68.769531 421.039062 60.28125 410.574219 60.28125 Z M 410.574219 86.003906 C 406.835938 86.003906 403.804688 82.96875 403.804688 79.234375 C 403.804688 75.496094 406.835938 72.464844 410.574219 72.464844 C 414.308594 72.464844 417.34375 75.496094 417.34375 79.234375 C 417.34375 82.96875 414.308594 86.003906 410.574219 86.003906 Z M 410.574219 86.003906 " fill-opacity="1" fill-rule="nonzero"/></g></svg>